<svg xmlns="http://www.w3.org/2000/svg" viewBox="0 0 254.4 212.8"><defs><style>.cls-10,.cls-11,.cls-3,.cls-5,.cls-7,.cls-9{fill:#fff}.cls-3{stroke:#1060e1}.cls-3,.cls-9{stroke-linejoin:bevel}.cls-13,.cls-6{fill:none}.cls-5,.cls-6{stroke:#021766}.cls-5,.cls-6,.cls-7{stroke-miterlimit:10}.cls-7{stroke:#64b674}.cls-9{stroke:#ee7b06}.cls-10,.cls-13{stroke:#945ca2;stroke-linejoin:round}</style></defs><g id="Layer_2" data-name="Layer 2"><g id="Layer_1-2" data-name="Layer 1"><path d="M161.8 193l-35 19.8L5.3 143l35-20L162 193zm90.6-77.6L185 154.5 63.6 84.7 131 45.5l121.5 69.9z" fill="#d9eefc" opacity=".7"/><path class="cls-3" d="M163.3 164l-35 19.8L6.8 114l35-20 121.6 70z"/><path class="cls-3" d="M163.3 181.2l-35 20-121.5-70v-17.1l121.5 69.8 35-19.9v17.2zm-35 2.6v17.3M253.9 86.4l-67.3 39.1L65 55.7l67.3-39.2L254 86.4z"/><path class="cls-3" d="M253.9 103.7l-67.3 39L65 73V55.7l121.5 69.9 67.3-39.1v17.2z"/><path fill="none" stroke-linejoin="bevel" stroke="#1060e1" d="M186.6 125.5v17.3"/><path class="cls-5" d="M24.7 104.5l3 10a4.4 4.4 0 0 0 2.5 3.5 13.6 13.6 0 0 0 12.3 0c1.6-1 2.4-2.2 2.5-3.5l3-10"/><path class="cls-5" d="M45.8 95.6c5.2 3 5.3 8 0 11s-13.7 3-19 0-5.3-8 0-11 13.7-3 19 0z"/><path class="cls-6" d="M45.8 92.8c5.2 3 5.3 8 0 11s-13.7 3-19 0-5.3-8 0-11 13.7-3 19 0z"/><path class="cls-7" d="M45.1 78.9c1.3-3.8 13.1-31 29.3-36.9 0 0 1.3-1.7-5.4-2s-9-1-12 3.7-6.4 3.3-8.2 3.4-4 .6-3.7 4.2-.3 7.5-3.8 9-6 6.2-3.1 9.9l7 8.7z"/><path class="cls-7" d="M21.7 59.8c1.3-5 2.6-24.4 1-31.2s-1.6-9-1-9.4 4 2 7.2 6S42 40 43.8 51.6 37.8 71.2 37 73s-1.5 9.2-1 11.5h-.7s-4-11.7-9-15.8-4.6-8.8-4.6-8.8zm.7 19.9c-.8-3-15.4-38-15.7-41.2S6.2 32 5.6 32 1.4 39.4 1 41.3s-1 5.6 1.2 8.6S4 56.3 4 58s-1.7 7 2.7 9.7 9.5 5.1 11.3 8.2a8.2 8.2 0 0 0 4.4 3.8zm23-1.5c-1.5 4-5.1 14.7-5.2 22.5M36 84.4c.2 3 1.3 10.8 1 16.3m-14.6-21c1.5 2.5 7.7 16.1 9.6 21m-.6-58.6l6.7-5.2m-9.5 10.6s11 .7 13.4-2.2m-17 7.5a62 62 0 0 0 18.7 2"/><path d="M41.7 65.1a24 24 0 0 1-19.6-8c-.3-.3.4-.7.6-1.2 3.6-5.8 12.1-13.3 9.7-26.2" stroke="#64b674" stroke-miterlimit="10" fill="none"/><path class="cls-3" d="M127 139c.6 1.6.2 3.7-2.4 5.9-2.4 2-4 .4-7.2 5.6-2.2 3.6-8.5 2.4-10 1.4-2.2-1.5 1.3-5.2 2.7-6.8s8.7-8 11.4-8 5.6 1.9 5.6 1.9zm14.7 7c.5 1.6.2 3.7-2.5 5.9-2.3 2-3.9.4-7.2 5.6-2.2 3.6-8.4 2.4-10 1.4-2.2-1.5 1.3-5.2 2.7-6.8s8.7-8 11.4-8 5.6 1.9 5.6 1.9z"/><path class="cls-5" d="M141.6 148s3.1-19.7 5.2-26.4c3.7-12.2 15.3-10.6 25-13.9s15.8-10.3 16.4-17.7l-33-7.3-24.4 11a11.5 11.5 0 0 0-5.8 5.4c-2.4 4.3-4.3 38.5-4.3 38.5 0 1.7 1.1 5 6 3 0 0 4.8-22.7 6.4-29.6a15.5 15.5 0 0 1 11-11.4c.3 0 1.3 1.5 1.5 1.4 0 0-6 6-7.7 10-2.3 5.3-5.2 34.6-5.2 34.6 2 5.5 8.9 2.3 8.9 2.3z"/><path class="cls-3" d="M119.2 97l36.5 21.3 22.3-12.9-36.6-21.2L119.2 97z"/><path class="cls-9" d="M149 60l-14 21.8-5 3.7 5 3.3 1.6 2.8 3-6 16.7-19.1.2-2.8-7.4-3.7z"/><path class="cls-10" d="M166 35.3c.3-.7-4.2.4-4.5.6a14 14 0 0 0-5 4.5 46.4 46.4 0 0 0-4.7 9.4c-1 2.5-3 6-2.6 8.8.2 2.1 4.4 5.7 7.3 5.1z"/><path class="cls-11" d="M168.2 34.3c-5 1.9-9.5 6.9-10.2 11.7s-2.8 39-2.8 39 4.2 11 20.1 9.1 15-7.8 15-7.8 3-39 1.2-42.5-6-9.7-9.4-10-14 .5-14 .5z"/><path d="M170.1 35.7c-4.9 2-9.4 7-10.2 11.8s-2.8 39-2.8 39 4.3 11 20.2 9.1 15-7.8 15-7.8 3-39.1 1.1-42.6-6-9.6-9.4-10-13.9.5-13.9.5z" fill="#e2d4e9"/><path class="cls-3" d="M110.4 146a6.3 6.3 0 0 1 2.5 1m-1.1-2.2a6.2 6.2 0 0 1 2.6 1m-1.4-2.2a6.4 6.4 0 0 1 2.7 1m-1.3-2.1a6.2 6.2 0 0 1 2.6 1m8 9.7a6.4 6.4 0 0 1 2.6 1m-1.2-2.2a6.2 6.2 0 0 1 2.6 1m-1.3-2.1a6.2 6.2 0 0 1 2.6 1m-1.3-2.2a6.4 6.4 0 0 1 2.6 1"/><path class="cls-13" d="M168.2 34.3c-5 1.9-9.5 6.9-10.2 11.7s-2.8 39-2.8 39 4.2 11 20.1 9.1 15-7.8 15-7.8 3-39 1.2-42.5-6-9.7-9.4-10-14 .5-14 .5z"/><path class="cls-9" d="M176.4 75.3A90.6 90.6 0 0 1 156 95.2h-5.6l-2.8 2.7v4.2l4.4 2.5 1.7-.8 2.3-3.5s26.1-15.4 28.2-18.5l.4-4z"/><path class="cls-10" d="M181.2 77.9a8.5 8.5 0 0 0 2.6 0c1.7-.2 3.2-.7 3.7-2.5l1-4.4 2.1-9.6c.4-2.3 2.2-12.2-4-12s-7 5.2-7 5.2l-2.5 10.7-1.4 6.6c-.4 2.7 1.7 4.8 4.1 5.6a8.7 8.7 0 0 0 1.4.4z"/><path class="cls-3" d="M134 77.6l-15.2-8.8V97l36.7 21.3.1-28.3L134 77.6"/><path class="cls-9" d="M179.3 24.6c-.3 3.3.5 7.5 2.6 9.3 0 0-3.4 8.8-10.3 7.8s-4.1-6.3-4.1-6.3 8-3.6 9.5-7.6 2.3-3.2 2.3-3.2z"/><path class="cls-9" d="M157.5 26.7c-.6-2.6 0-12 .6-14.7s5.9-8 13.6-5 8.9 2.8 9 6.8-3.5 15-8.6 16.2-12.8 2.6-13.5.4a27.1 27.1 0 0 1-1-3.7z"/><path class="cls-5" d="M158.7 11c1.3-.8 4.5-.8 6.9.3s7.9.7 9.5.2l-.3 1c-.5 1.5-.8 2.3-.6 7.3s-1.5 5.8-2.6 6.5-3.8.9-5.6 0-5.5-1.5-7.4-.7-2 0-2 0c0 1 .6 5.4 2.8 7.5s5.4 2.4 10.8 1.8 6.6-7.7 7.1-8.4 1.6-.7 1.7-1.4-.5-1.9 1.9-4 2.2-4.4 2.8-7.6a11.6 11.6 0 0 0-1.5-7.4c-.5-.7-3.6-1.8-3.6-1.8a6.2 6.2 0 0 0-5.1-3.7c-2.9-.5-5.6 1.7-8 1.7s-4-1-5.3-1a6 6 0 0 0-6.5 5c-1.3 5 3.8 5.4 5 4.6z"/><ellipse class="cls-5" cx="157.1" cy="18.5" rx="2.6" ry="4.6" transform="rotate(-30.2 157.1 18.5)"/><path class="cls-5" d="M165.8 15.6a7.1 7.1 0 0 1 3.2 5.6c0 2-1.5 2.9-3.3 1.9a7.1 7.1 0 0 1-3.2-5.6c0-2 1.5-2.9 3.3-1.9z"/><path class="cls-6" d="M160.1 19.4h2.6m5.8-.3l5.9-1.7"/><path class="cls-13" d="M182 34s-3.5 8.7-10.4 7.7-4.1-6.3-4.1-6.3"/><path d="M111.7 3.8C121 9 128.4 22 128.4 32.7s-7.6 14.9-16.8 9.6-16.7-18.3-16.7-29 7.6-14.8 16.8-9.5zm-.1 37.7c8.8 5 16 1 16-9.2s-7-22.6-16-27.7-16-1-16 9.2 7.1 22.5 16 27.7" fill="#1060e1"/><path class="cls-11" d="M111.7 4.6c8.8 5.1 16 17.5 16 27.7s-7.2 14.3-16 9.2-16-17.6-16-27.7 7.2-14.3 16-9.2z"/><path d="M109.3 32.8V30l3 1.7v2.8l-3-1.8zm1.7-19c3.3 2 6 5.5 6 9 0 2.3-1.7 2.8-3.2 3.3l-.9.3c-.7.2-.9.5-.9 1.5v1l-2.5-1.4v-2.2c0-.8.3-1.3 1-1.5l1.5-.3c1.6-.4 2.4-1 2.4-2.4 0-2-1.7-4-3.5-5.1-1.9-1.1-3.4-1-3.5 1l-2.6-1.4c0-3.3 2.8-3.7 6.1-1.8z" fill="#ee7b06"/></g></g></svg>